<?xml version="1.0" standalone="no"?>
<!DOCTYPE svg PUBLIC "-//W3C//DTD SVG 20010904//EN"
 "http://www.w3.org/TR/2001/REC-SVG-20010904/DTD/svg10.dtd">
<svg version="1.0" xmlns="http://www.w3.org/2000/svg"
 width="507.000000pt" height="252.000000pt" viewBox="0 0 507.000000 252.000000"
 preserveAspectRatio="xMidYMid meet">

<g transform="translate(0.000000,252.000000) scale(0.100000,-0.100000)"
fill="#000000" stroke="none">
<path d="M984 975 c-12 -29 15 -45 77 -45 l58 0 3 -127 3 -128 25 0 25 0 3
128 3 127 57 0 c65 0 86 9 80 36 -3 18 -16 19 -166 22 -139 2 -163 0 -168 -13z"/>
<path d="M1440 971 c-19 -10 -46 -33 -58 -52 -20 -29 -23 -44 -20 -96 3 -55 8
-67 38 -98 79 -82 236 -69 297 24 47 70 21 176 -53 218 -51 30 -153 32 -204 4z
m187 -63 c34 -34 40 -93 14 -135 -39 -62 -154 -65 -200 -6 -40 50 -17 138 43
164 39 16 115 4 143 -23z"/>
<path d="M1816 974 c-23 -22 -23 -275 -1 -294 27 -23 44 -4 47 52 l3 53 95 5
c52 3 105 11 117 17 54 32 50 139 -7 168 -42 22 -233 21 -254 -1z m234 -64
c14 -26 -2 -58 -33 -65 -12 -4 -52 -5 -87 -3 -63 3 -65 4 -68 31 -6 53 0 57
92 57 75 0 87 -2 96 -20z"/>
<path d="M2180 964 c0 -26 37 -159 66 -241 16 -43 39 -59 73 -48 20 6 33 29
76 138 15 38 31 65 35 60 4 -4 21 -45 39 -90 18 -45 40 -88 50 -97 21 -19 55
-21 69 -3 16 19 94 286 87 297 -3 6 -15 10 -26 10 -24 0 -36 -27 -70 -152 -13
-49 -26 -88 -30 -88 -3 0 -25 48 -49 108 -44 108 -61 135 -85 126 -7 -3 -34
-57 -60 -120 -26 -63 -51 -111 -55 -107 -4 4 -15 34 -24 66 -49 173 -46 167
-72 167 -19 0 -24 -5 -24 -26z"/>
<path d="M2842 978 c-30 -37 -143 -263 -140 -281 5 -38 35 -32 63 12 l25 41
93 0 93 0 23 -40 c23 -42 54 -53 65 -24 6 16 -110 249 -142 287 -18 20 -65 23
-80 5z m71 -108 c15 -28 27 -55 27 -60 0 -6 -27 -10 -60 -10 -33 0 -60 2 -60
5 0 10 54 115 60 115 3 0 17 -23 33 -50z"/>
<path d="M3074 975 c-12 -29 15 -45 77 -45 l58 0 3 -127 3 -128 25 0 25 0 3
128 3 127 57 0 c65 0 86 9 80 36 -3 18 -16 19 -166 22 -139 2 -163 0 -168 -13z"/>
<path d="M3530 971 c-19 -10 -46 -33 -58 -52 -20 -29 -23 -43 -20 -98 4 -59 7
-66 45 -101 46 -43 101 -57 178 -45 53 7 101 44 92 68 -7 18 -42 23 -52 7 -3
-5 -24 -14 -45 -20 -85 -23 -160 25 -160 101 0 89 96 134 193 91 39 -17 48
-18 58 -6 47 56 -143 102 -231 55z"/>
<path d="M3860 835 c0 -130 3 -157 15 -161 27 -11 44 15 47 74 l3 57 90 0 90
0 3 -57 c3 -59 20 -85 47 -74 12 4 15 31 15 161 l0 155 -24 0 c-29 0 -36 -16
-36 -81 l0 -49 -95 0 -94 0 -3 63 c-3 59 -4 62 -30 65 l-28 3 0 -156z"/>
</g>
</svg>
